<svg width="47" height="42" viewBox="0 0 47 42" fill="none" xmlns="http://www.w3.org/2000/svg">
<g clip-path="url(#clip0_13_227)">
<path d="M8.33826 0.637695C9.25241 0.637695 10.0394 1.29923 10.2143 2.2136L10.3335 3.22247H43.7758C45.3895 3.22247 46.6772 4.85814 46.2241 6.50674L41.9316 22.0186C41.6215 23.1333 40.6199 23.9006 39.4832 23.9006H14.2763L15.0076 27.7778H39.4991C40.5563 27.7778 41.4069 28.6421 41.4069 29.7164C41.4069 30.7907 40.5563 31.6549 39.4991 31.6549H13.3542C12.5116 31.6549 11.7246 30.9926 11.5497 30.0798L6.75955 4.51485H2.61484C1.56157 4.51485 0.707031 3.64653 0.707031 2.57627C0.707031 1.50602 1.56157 0.637695 2.61484 0.637695H8.33826ZM10.882 38.1169C10.882 35.9763 12.5911 34.2397 14.6976 34.2397C16.8041 34.2397 18.5132 35.9763 18.5132 38.1169C18.5132 40.2574 16.8041 41.994 14.6976 41.994C12.5911 41.994 10.882 40.2574 10.882 38.1169ZM41.4069 38.1169C41.4069 40.2574 39.6978 41.994 37.5913 41.994C35.4848 41.994 33.7757 40.2574 33.7757 38.1169C33.7757 35.9763 35.4848 34.2397 37.5913 34.2397C39.6978 34.2397 41.4069 35.9763 41.4069 38.1169Z" fill="white"/>
</g>
<defs>
<clipPath id="clip0_13_227">
<rect width="45.7874" height="41.3563" fill="white" transform="translate(0.707031 0.637695)"/>
</clipPath>
</defs>
</svg>
