<svg width="60" height="57" viewBox="0 0 60 57" fill="none" xmlns="http://www.w3.org/2000/svg">
<path d="M54.375 7.69434C57.4805 7.69434 60 10.0309 60 12.9133C60 14.5551 59.168 16.099 57.75 17.0884L32.25 34.8329C30.9141 35.7571 29.0859 35.7571 27.75 34.8329L2.25 17.0884C0.833555 16.099 0 14.5551 0 12.9133C0 10.0309 2.51836 7.69434 5.625 7.69434H54.375ZM25.5 37.6163C28.1719 39.4756 31.8281 39.4756 34.5 37.6163L60 19.8719V42.4873C60 46.3254 56.6367 49.4459 52.5 49.4459H7.5C3.35742 49.4459 0 46.3254 0 42.4873V19.8719L25.5 37.6163Z" fill="#20485B"/>
</svg>
