<svg width="61" height="57" viewBox="0 0 61 57" fill="none" xmlns="http://www.w3.org/2000/svg">
<path d="M30.0234 14.297C21.5056 14.297 14.635 20.6694 14.635 28.5697C14.635 36.4701 21.5056 42.8425 30.0234 42.8425C38.5413 42.8425 45.4118 36.4701 45.4118 28.5697C45.4118 20.6694 38.5413 14.297 30.0234 14.297ZM30.0234 37.8489C24.519 37.8489 20.019 33.6876 20.019 28.5697C20.019 23.4519 24.5056 19.2906 30.0234 19.2906C35.5413 19.2906 40.0279 23.4519 40.0279 28.5697C40.0279 33.6876 35.5279 37.8489 30.0234 37.8489V37.8489ZM49.6306 13.7131C49.6306 15.564 48.0234 17.0422 46.0413 17.0422C44.0457 17.0422 42.452 15.5516 42.452 13.7131C42.452 11.8747 44.0591 10.3841 46.0413 10.3841C48.0234 10.3841 49.6306 11.8747 49.6306 13.7131ZM59.8225 17.0919C59.5948 12.6324 58.4966 8.68227 54.9743 5.42773C51.4654 2.17319 47.2065 1.15459 42.3984 0.930997C37.4431 0.670137 22.5904 0.670137 17.635 0.930997C12.8404 1.14217 8.58147 2.16077 5.05915 5.41531C1.53683 8.66985 0.452009 12.62 0.210937 17.0795C-0.0703125 21.6756 -0.0703125 35.4515 0.210937 40.0476C0.438616 44.5071 1.53683 48.4572 5.05915 51.7118C8.58147 54.9663 12.827 55.9849 17.635 56.2085C22.5904 56.4694 37.4431 56.4694 42.3984 56.2085C47.2065 55.9973 51.4654 54.9787 54.9743 51.7118C58.4832 48.4572 59.5815 44.5071 59.8225 40.0476C60.1038 35.4515 60.1038 21.688 59.8225 17.0919V17.0919ZM53.4207 44.9791C52.3761 47.4138 50.3538 49.2895 47.7154 50.2708C43.7645 51.7242 34.3895 51.3888 30.0234 51.3888C25.6574 51.3888 16.269 51.7118 12.3315 50.2708C9.70647 49.3019 7.68415 47.4262 6.62611 44.9791C5.05915 41.3146 5.42076 32.6193 5.42076 28.5697C5.42076 24.5202 5.07254 15.8124 6.62611 12.1604C7.67076 9.72571 9.69308 7.85 12.3315 6.86867C16.2824 5.41531 25.6574 5.7507 30.0234 5.7507C34.3895 5.7507 43.7779 5.42773 47.7154 6.86867C50.3404 7.83758 52.3627 9.71329 53.4207 12.1604C54.9877 15.8249 54.6261 24.5202 54.6261 28.5697C54.6261 32.6193 54.9877 41.327 53.4207 44.9791Z" fill="#20485B"/>
</svg>
