<svg width="60" height="57" viewBox="0 0 60 57" fill="none" xmlns="http://www.w3.org/2000/svg">
<path d="M55.7143 0.735352H4.27232C1.91518 0.735352 0 2.53713 0 4.74897V52.3905C0 54.6024 1.91518 56.4041 4.27232 56.4041H55.7143C58.0714 56.4041 60 54.6024 60 52.3905V4.74897C60 2.53713 58.0714 0.735352 55.7143 0.735352ZM18.1339 48.4515H9.24107V21.8845H18.1473V48.4515H18.1339ZM13.6875 18.2561C10.8348 18.2561 8.53125 16.1064 8.53125 13.4721C8.53125 10.8377 10.8348 8.68804 13.6875 8.68804C16.5268 8.68804 18.8437 10.8377 18.8437 13.4721C18.8437 16.1188 16.5402 18.2561 13.6875 18.2561ZM51.4687 48.4515H42.5759V35.5283C42.5759 32.4467 42.5089 28.4828 37.9554 28.4828C33.3214 28.4828 32.6116 31.8378 32.6116 35.3047V48.4515H23.7188V21.8845H32.25V25.5129H32.3705C33.5625 23.4254 36.4688 21.2259 40.7946 21.2259C49.7946 21.2259 51.4687 26.7307 51.4687 33.8881V48.4515Z" fill="#20485B"/>
</svg>
